# AST/ASF file generated using VICON BodyLanguage
# -----------------------------------------------
:version 1.10
:name VICON
:units
  mass 1.0
  length 0.45
  angle deg
:documentation
   .ast/.asf automatically generated from VICON data using
   VICON BodyBuilder and BodyLanguage model FoxedUp or BRILLIANT.MOD
:root
   order TX TY TZ RX RY RZ
   axis XYZ
   position 0 0 0  
   orientation 0 0 0 
:bonedata
  begin
     id 1 
     name lhipjoint
     direction 0.573633 -0.743009 0.344793 
     length 2.46257 
     axis 0 0 0  XYZ
  end
  begin
     id 2 
     name lfemur
     direction 0.34202 -0.939693 0  
     length 7.3842  
     axis 0 0 20  XYZ
    dof rx ry rz
    limits (-160.0 20.0)
           (-70.0 70.0)
           (-60.0 70.0)
  end
  begin
     id 3 
     name ltibia
     direction 0.34202 -0.939693 0   
     length 7.50407   
     axis 0 0 20   XYZ
    dof rx
    limits (-10.0 170.0)
  end
  begin
     id 4 
     name lfoot
     direction 0.110749 -0.304281 0.946123   
     length 1.95925   
     axis -90 7.62852e-016 20   XYZ
    dof rx rz
    limits (-45.0 90.0)
           (-70.0 20.0)
  end
  begin
     id 5 
     name ltoes
     direction 1.53554e-011 -4.21843e-011 1   
     length 0.978318   
     axis -90 7.62852e-016 20   XYZ
    dof rx
    limits (-90.0 20.0)
  end
  begin
     id 6 
     name rhipjoint
     direction -0.488109 -0.791693 0.367385   
     length 2.31113  
     axis 0 0 0  XYZ 
  end
  begin
     id 7 
     name rfemur
     direction -0.34202 -0.939693 0   
     length 7.40965   
     axis 0 0 -20   XYZ
    dof rx ry rz
    limits (-160.0 20.0)
           (-70.0 70.0)
           (-70.0 60.0)
  end
  begin
     id 8 
     name rtibia
     direction -0.34202 -0.939693 0   
     length 7.55548   
     axis 0 0 -20   XYZ
    dof rx
    limits (-10.0 170.0)
 end
 begin
     id 9 
     name rfoot
     direction -0.127594 -0.350561 0.927808   
     length 2.07199  
     axis -90 -7.62852e-016 -20   XYZ
    dof rx rz
    limits (-45.0 90.0)
           (-20.0 70.0)
  end
  begin
     id 10 
     name rtoes
     direction -1.53542e-011 -4.21909e-011 1   
     length 1.02667   
     axis -90 -7.62852e-016 -20   XYZ
    dof rx
    limits (-90.0 20.0)
  end
  begin
     id 11 
     name lowerback
     direction -0.0103342 0.997298 -0.0727278   
     length 2.02836   
     axis 0 0 0   XYZ
    dof rx ry rz
    limits (-20.0 45.0)
           (-30.0 30.0)
           (-30.0 30.0)
  end
  begin
     id 12 
     name upperback
     direction 0.0171146 0.999786 -0.011606   
     length 2.03179   
     axis 0 0 0   XYZ
    dof rx ry rz
    limits (-20.0 45.0)
           (-30.0 30.0)
           (-30.0 30.0)
  end
  begin
     id 13 
     name thorax
     direction 0.0216927 0.999513 0.0224343   
     length 2.03882   
     axis 0 0 0   XYZ
    dof rx ry rz
    limits (-20.0 45.0)
           (-30.0 30.0)
           (-30.0 30.0)
  end
  begin
     id 14 
     name lowerneck
     direction 0.000989287 0.993907 0.110221   
     length 1.75428   
     axis 0 0 0   XYZ
    dof rx ry rz
    limits (-20.0 45.0)
           (-30.0 30.0)
           (-30.0 30.0)
  end
  begin
     id 15 
     name upperneck
     direction -0.0172474 0.994813 -0.100253   
     length 1.77058   
     axis 0 0 0   XYZ
    dof rx ry rz
    limits (-20.0 45.0)
           (-30.0 30.0)
           (-30.0 30.0)
  end
  begin
     id 16
     name head
     direction -0.00486455 0.99894 -0.0457663  
     length 1.77427  
     axis 0 0 0   XYZ
    dof rx ry rz
    limits (-20.0 45.0)
           (-30.0 30.0)
           (-30.0 30.0)
  end
  begin
     id 17 
     name lclavicle
     direction 0.927314 0.333734 -0.169441  
     length 3.97584  
     axis 0 0 0   XYZ
    dof ry rz
    limits (-20.0 10.0)
           (0.0 20.0)
  end
  begin
     id 18 
     name lhumerus
     direction 1 -4.48965e-011 -3.25313e-028   
     length 4.76468   
     axis 180 -30 -90   XYZ
    dof rx ry rz
    limits (-60.0 90.0)
           (-90.0 90.0)
           (-90.0 90.0)
  end
  begin
     id 19
     name lradius
     direction 1 -4.48969e-011 -2.8465e-028   
     length 3.52712   
     axis -180 -30 -90   XYZ
    dof rx
    limits (-10.0 170.0)
  end
  begin
     id 20
     name lwrist
     direction 1 -4.4896e-011 -7.78665e-028   
     length 1.76356   
     axis 1.91374e-015 90 90   XYZ
    dof ry
    limits (-180.0 0.0)
 end
  begin
     id 21 
     name lhand
     direction 1 -4.48959e-011 -1.55733e-027   
     length 0.859564   
     axis 9.9371e-016 90 90   XYZ
    dof rx rz
    limits (-90.0 90.0)
           (-45.0 45.0)
  end
  begin
     id 22 
     name lfingers
     direction 1 -4.48965e-011 -3.11466e-027   
     length 0.693002   
     axis 1.98742e-015 90 90   XYZ
    dof rx
    limits (0.0 90.0)
  end
  begin
     id 23
     name lthumb
     direction 0.707107 -6.34948e-011 0.707107   
     length 0.995017   
     axis -90 45 2.85299e-015   XYZ
    dof rx rz
    limits (-45.0 45.0)
           (-45.0 45.0)
  end
  begin
     id 24 
     name rclavicle
     direction -0.899388 0.348209 -0.264294   
     length 3.68366  
     axis 0 0 0   XYZ 
    dof ry rz
    limits (-10.0 20.0)
           (-20.0 0.0)
  end
  begin
     id 25 
     name rhumerus
     direction -1 -4.48965e-011 -3.01536e-027  
     length 4.90577   
     axis 180 30 90   XYZ
    dof rx ry rz
    limits (-90.0 60.0)
           (-90.0 90.0)
           (-90.0 90.0)
  end
  begin
     id 26 
     name rradius
     direction -1 -4.48966e-011 3.93291e-027   
     length 3.42692   
     axis -180 30 90   XYZ
    dof rx
    limits (-10.0 170.0)
  end
  begin
     id 27 
     name rwrist
     direction -1 -4.48969e-011 -7.78665e-028   
     length 1.71346   
     axis 1.91374e-015 -90 -90   XYZ
    dof ry
    limits (-180.0 0.0)
  end
  begin
     id 28
     name rhand
     direction -1 -4.48967e-011 -1.55733e-027   
     length 0.740957   
     axis 9.9371e-016 -90 -90   XYZ
    dof rx rz
    limits (-90.0 90.0)
           (-45.0 45.0)
  end
  begin
     id 29
     name rfingers
     direction -1 -4.48949e-011 -3.11466e-027   
     length 0.597378   
     axis 1.98742e-015 -90 -90   XYZ
    dof rx
    limits (0.0 90.0)
  end
  begin
     id 30
     name rthumb
     direction -0.707107 -6.34931e-011 0.707107   
     length 0.857719   
     axis -90 -45 -2.85299e-015   XYZ
    dof rx rz
    limits (-45.0 45.0)
           (-45.0 45.0)
  end
:hierarchy
  begin
    root lhipjoint rhipjoint lowerback
    lhipjoint lfemur
    lfemur ltibia
    ltibia lfoot
    lfoot ltoes
    rhipjoint rfemur
    rfemur rtibia
    rtibia rfoot
    rfoot rtoes
    lowerback upperback
    upperback thorax
    thorax lowerneck lclavicle rclavicle
    lowerneck upperneck
    upperneck head
    lclavicle lhumerus
    lhumerus lradius
    lradius lwrist
    lwrist lhand lthumb
    lhand lfingers
    rclavicle rhumerus
    rhumerus rradius
    rradius rwrist
    rwrist rhand rthumb
    rhand rfingers
  end

#!OML:ASF E:\I on waltz\AllaLogoMonkeySwing\Project 1\Capture day 1\Session 1\Subject1.ASF
:FULLY-SPECIFIED
:DEGREES
121
root 1.66187 9.85276 -0.232482 11.4422 3.2499 -1.0357
lowerback 53.1034 -0.273535 2.00693
upperback 12.3932 0.780954 0.120045
thorax -7.03687 0.41017 -1.11746
lowerneck -6.777 -0.433012 -1.14975
upperneck 18.4891 -0.459808 0.298101
head 6.74808 -0.263341 0.253372
rclavicle -6.95746e-015 6.4605e-015
rhumerus 16.5629 1.00727 -65.107
rradius 57.743
rwrist -12.288
rhand -4.47102 -37.2593
rfingers 7.12502
rthumb 21.3016 -66.1086
lclavicle -6.95746e-015 6.4605e-015
lhumerus 1.87647 2.03997 75.4821
lradius 69.583
lwrist 14.3481
lhand -10.3289 -14.6213
lfingers 7.12502
lthumb 15.6669 14.7644
rfemur -103.987 -11.9455 29.1831
rtibia 119.18
rfoot -26.482 -5.85365
rtoes 21.0826
lfemur -102.997 8.31292 -26.9587
ltibia 117.593
lfoot -30.54 -6.74652
ltoes -12.8148
122
root 1.65895 9.60956 -0.277383 10.3992 3.14037 -1.15085
lowerback 53.1808 -0.312997 2.05367
upperback 12.425 0.751136 0.0624652
thorax -7.00777 0.400623 -1.18811
lowerneck -6.60193 -0.376464 -1.29183
upperneck 17.9797 -0.40714 0.513729
head 6.55436 -0.230627 0.349961
rclavicle 2.18663e-015 3.57812e-015
rhumerus 16.69 1.34455 -65.1862
rradius 57.1699
rwrist -11.8109
rhand -4.69548 -37.1362
rfingers 7.12502
rthumb 21.086 -66.0097
lclavicle 2.18663e-015 3.57812e-015
lhumerus 1.80204 2.03587 75.672
lradius 68.9818
lwrist 13.4376
lhand -9.86162 -14.9424
lfingers 7.12502
lthumb 16.1169 14.4075
rfemur -104.85 -12.0428 29.437
rtibia 120.888
rfoot -26.2455 -5.81782
rtoes 21.3806
lfemur -103.917 8.65095 -27.0726
ltibia 119.388
lfoot -30.4545 -6.66986
ltoes -12.9789
123
root 1.65451 9.37548 -0.321435 9.40071 2.97675 -1.22879
lowerback 53.0606 -0.276111 2.02668
upperback 12.4827 0.768223 0.0243147
thorax -6.93118 0.410429 -1.22422
lowerneck -6.36502 -0.353963 -1.40316
upperneck 17.3968 -0.402073 0.72001
head 6.32764 -0.219354 0.434136
rclavicle 1.55052e-014 7.15625e-015
rhumerus 16.7138 1.60508 -65.3359
rradius 56.7048
rwrist -11.5613
rhand -4.74581 -37.174
rfingers 7.12502
rthumb 21.0376 -66.0529
lclavicle 1.55052e-014 7.15625e-015
lhumerus 1.6897 2.00689 75.938
lradius 68.4271
lwrist 12.5746
lhand -9.41812 -15.3483
lfingers 7.12502
lthumb 16.5439 13.9665
rfemur -105.776 -12.1424 29.7182
rtibia 122.499
rfoot -25.9804 -5.75459
rtoes 21.4432
lfemur -104.875 9.09206 -27.2934
ltibia 121.084
lfoot -30.302 -6.64089
ltoes -13.0439
124
root 1.64781 9.155 -0.365929 8.3634 2.78126 -1.27939
lowerback 52.8427 -0.176376 1.91801
upperback 12.5911 0.817957 0.0203394
thorax -6.78909 0.432491 -1.19936
lowerneck -6.1631 -0.35635 -1.45849
upperneck 16.7996 -0.424689 0.861276
head 6.10391 -0.222973 0.485799
rclavicle 3.37934e-015 1.39149e-015
rhumerus 16.6381 1.73487 -65.6298
rradius 56.4024
rwrist -11.2376
rhand -4.53441 -37.2259
rfingers 7.12502
rthumb 21.2407 -66.0821
lclavicle 3.37934e-015 1.39149e-015
lhumerus 1.58568 2.0275 76.3155
lradius 68.0048
lwrist 12.0661
lhand -8.93665 -15.4608
lfingers 7.12502
lthumb 17.0074 13.8147
rfemur -106.592 -12.2855 30.005
rtibia 123.974
rfoot -25.7177 -5.57916
rtoes 21.62
lfemur -105.697 9.61555 -27.5279
ltibia 122.644
lfoot -30.1043 -6.75955
ltoes -12.8657
125
root 1.64388 8.95113 -0.410973 7.26789 2.68879 -1.45765
lowerback 52.5484 -0.202664 1.98201
upperback 12.7559 0.813461 0.0505445
thorax -6.57377 0.432322 -1.1934
lowerneck -6.05521 -0.309969 -1.40187
upperneck 16.2511 -0.366928 0.836295
head 5.9115 -0.193771 0.471678
rclavicle 1.03368e-014 -8.05078e-015
rhumerus 16.5305 1.80672 -66.0631
rradius 56.2523
rwrist -10.9041
rhand -4.28676 -37.295
rfingers 7.12502
rthumb 21.4786 -66.1242
lclavicle 1.03368e-014 -8.05078e-015
lhumerus 1.52035 2.22917 76.7921
lradius 67.6693
lwrist 11.9242
lhand -8.47397 -15.2531
lfingers 7.12502
lthumb 17.4527 13.9834
rfemur -107.194 -12.5901 30.4148
rtibia 125.309
rfoot -25.545 -5.17956
rtoes 22.224
lfemur -106.368 10.0699 -27.5882
ltibia 124.08
lfoot -29.662 -7.06286
ltoes -12.1232
